<?xml version="1.0" standalone="no"?>
<!DOCTYPE svg PUBLIC "-//W3C//DTD SVG 20010904//EN"
 "http://www.w3.org/TR/2001/REC-SVG-20010904/DTD/svg10.dtd">
<svg version="1.0" xmlns="http://www.w3.org/2000/svg"
 width="838.000000pt" height="838.000000pt" viewBox="0 0 838.000000 838.000000"
 preserveAspectRatio="xMidYMid meet">
<metadata>
Created by potrace 1.14, written by Peter Selinger 2001-2017
</metadata>
<g transform="translate(0.000000,838.000000) scale(0.100000,-0.100000)"
fill="#000000" stroke="none">
<path d="M3448 7874 c-2 -1 -70 -5 -153 -8 -266 -11 -358 -16 -520 -32 -27 -3
-77 -7 -110 -10 -102 -9 -130 -12 -135 -14 -3 -1 -9 -2 -14 -1 -5 1 -39 -3
-75 -9 -36 -5 -86 -13 -111 -15 -74 -9 -235 -33 -275 -41 -11 -3 -54 -11 -95
-19 -41 -8 -84 -17 -95 -19 -30 -6 -151 -35 -170 -40 -329 -90 -604 -211 -694
-305 -59 -62 -149 -234 -185 -356 -2 -5 -6 -17 -9 -25 -6 -17 -38 -127 -42
-150 -2 -8 -4 -15 -5 -15 -1 0 -3 -7 -5 -15 -2 -8 -10 -43 -18 -78 -9 -34 -16
-65 -16 -67 -1 -3 -1 -6 -2 -7 -1 -5 -9 -52 -13 -80 -2 -15 -6 -30 -9 -35 -3
-4 -8 -33 -12 -63 -3 -30 -8 -62 -10 -70 -2 -8 -7 -31 -10 -50 -3 -19 -7 -46
-10 -60 -2 -14 -7 -49 -10 -79 -4 -30 -8 -62 -10 -72 -2 -10 -6 -46 -10 -81
-3 -35 -8 -70 -10 -78 -2 -8 -6 -50 -10 -93 -4 -43 -8 -88 -10 -100 -4 -25
-16 -157 -21 -232 -2 -27 -6 -88 -9 -135 -3 -47 -7 -112 -9 -145 -21 -298 -28
-1351 -12 -1725 13 -303 27 -520 41 -665 5 -50 14 -163 20 -241 2 -22 8 -81
14 -130 7 -49 13 -105 15 -124 7 -60 29 -222 42 -305 3 -16 7 -45 10 -62 2
-18 8 -52 13 -75 5 -24 12 -63 16 -87 3 -23 10 -53 15 -66 5 -13 7 -25 5 -27
-2 -2 16 -80 41 -173 24 -94 46 -177 48 -185 10 -41 77 -202 107 -259 29 -55
92 -131 142 -168 16 -13 192 -103 200 -103 3 0 22 -8 43 -17 22 -9 42 -18 47
-19 4 -1 9 -3 12 -4 3 -1 8 -3 13 -4 4 -1 45 -15 92 -30 47 -16 92 -30 100
-31 8 -1 22 -5 30 -8 38 -13 272 -66 370 -82 19 -4 60 -11 90 -16 30 -6 66
-12 80 -14 102 -17 94 -15 220 -31 30 -3 69 -8 85 -10 17 -2 48 -6 70 -8 22
-2 65 -7 95 -11 68 -9 101 -11 217 -19 50 -4 111 -9 135 -11 42 -5 113 -9 323
-21 448 -25 504 -20 603 48 56 38 122 106 122 124 0 8 4 14 8 14 11 0 44 101
49 147 6 64 6 123 0 129 -3 3 -2 17 3 30 6 14 6 26 0 29 -6 3 -5 16 0 31 7 18
7 23 -2 18 -7 -4 -8 -3 -4 5 10 16 13 121 4 121 -3 0 -3 13 2 30 5 18 5 32 -1
36 -5 3 -6 10 -3 16 4 6 6 40 5 74 0 35 -1 71 -1 79 0 8 0 44 0 80 0 36 -1 71
-1 78 -1 12 0 84 2 122 1 37 1 40 -5 62 -2 13 -2 24 2 27 8 5 7 114 -1 123 -3
3 -2 16 3 29 6 14 6 26 0 29 -6 3 -5 16 0 31 7 18 7 23 -2 18 -7 -4 -8 -3 -4
5 10 16 13 121 4 121 -3 0 -3 13 2 30 5 18 5 32 -1 36 -5 3 -6 10 -3 16 4 6 6
40 5 74 0 35 -1 71 -1 79 0 8 0 44 0 80 0 36 -1 71 -1 78 -1 12 0 84 2 122 1
37 1 40 -5 62 -2 13 -2 24 2 27 8 5 7 114 -1 123 -3 3 -2 16 3 29 6 14 6 26 0
29 -6 3 -5 16 0 31 7 18 7 23 -2 18 -7 -4 -8 -3 -4 5 10 16 13 121 4 121 -3 0
-3 13 2 30 5 18 5 32 -1 36 -5 3 -6 10 -3 16 4 6 6 40 5 74 0 35 -1 71 -1 79
0 8 0 44 0 80 0 36 -1 71 -1 78 -1 12 0 84 2 122 1 37 1 40 -5 62 -2 13 -2 24
2 27 8 5 7 114 -1 123 -3 3 -2 16 3 29 6 14 6 26 0 29 -6 3 -5 16 0 31 7 18 7
23 -2 18 -7 -4 -8 -3 -4 5 10 16 13 121 4 121 -3 0 -3 13 2 30 5 18 5 32 -1
36 -5 3 -6 10 -3 16 4 6 6 40 5 74 0 35 -1 71 -1 79 0 8 0 44 0 80 0 36 0 72
0 80 0 8 0 44 0 80 0 36 0 72 0 80 0 8 0 44 0 80 0 36 -1 71 -1 78 -1 12 0 84
2 122 1 37 1 40 -5 62 -2 13 -2 24 2 27 8 5 7 114 -1 123 -3 3 -2 16 3 29 6
14 6 26 0 29 -6 3 -5 16 0 31 7 18 7 23 -2 18 -7 -4 -8 -3 -4 5 10 16 13 121
4 121 -3 0 -3 13 2 30 5 18 5 32 -1 36 -5 3 -6 10 -3 16 4 6 6 40 5 74 0 35
-1 71 -1 79 0 8 0 44 0 80 0 36 0 72 0 80 0 8 0 44 0 80 0 36 0 72 0 80 0 8 0
44 0 80 0 36 -1 71 -1 78 -1 12 0 84 2 122 1 37 1 40 -5 62 -2 13 -2 24 2 27
8 5 7 114 -1 123 -3 3 -2 16 3 29 6 14 6 26 0 29 -6 3 -5 16 0 31 7 18 7 23
-2 18 -7 -4 -8 -3 -4 5 10 16 13 121 4 121 -3 0 -3 13 2 30 5 18 5 32 -1 36
-5 3 -6 10 -3 16 4 6 6 40 5 74 0 35 -1 71 -1 79 0 8 0 44 0 80 0 36 0 72 0
80 0 8 0 44 0 80 0 36 0 72 0 80 0 8 0 45 0 83 0 107 1 136 5 140 2 2 0 15 -5
28 -6 14 -6 26 1 29 5 4 6 11 3 17 -7 11 -15 59 -15 91 0 9 -4 17 -10 17 -5 0
-9 9 -9 19 0 23 -63 109 -105 143 -16 13 -52 35 -80 49 -47 22 -61 24 -232 25
-101 0 -184 0 -185 -2z"/>
<path d="M4605 7871 c-105 -27 -207 -119 -246 -221 l-24 -65 0 -1510 0 -1510
26 -56 c34 -72 96 -134 168 -167 l56 -27 1467 -3 c1466 -3 1467 -3 1529 18
178 60 282 215 273 405 -4 92 -13 218 -19 280 -3 28 -7 84 -10 125 -8 111 -13
177 -21 250 -3 36 -8 85 -10 110 -2 25 -5 65 -8 90 -10 90 -17 156 -21 207 -2
29 -6 56 -8 60 -3 4 -8 42 -11 83 -4 41 -9 95 -13 120 -3 25 -7 54 -8 65 -1
11 -5 43 -10 70 -4 28 -9 61 -11 75 -1 14 -3 27 -4 30 -1 3 -2 8 -2 11 1 7
-15 109 -23 149 -3 14 -7 39 -9 55 -7 49 -16 97 -28 155 -6 30 -12 62 -14 70
-5 32 -15 76 -21 100 -4 14 -8 32 -9 40 -6 32 -42 158 -63 215 -12 33 -23 65
-24 70 -1 6 -6 16 -10 23 -5 6 -6 12 -3 12 5 0 -30 69 -65 130 -34 55 -81 91
-206 153 -63 32 -84 42 -175 81 -40 17 -243 83 -278 90 -14 3 -50 12 -80 20
-30 8 -66 17 -80 20 -156 33 -229 48 -250 51 -14 2 -38 6 -55 9 -61 11 -111
18 -145 22 -19 1 -46 5 -60 8 -14 2 -49 7 -78 10 -28 3 -67 8 -85 11 -31 5
-100 12 -182 19 -22 2 -71 7 -110 10 -108 10 -191 16 -295 21 -52 3 -126 7
-165 10 -155 9 -552 13 -580 6z"/>
<path d="M6270 4073 c-14 -2 -398 -4 -855 -5 l-830 -3 -55 -26 c-51 -24 -130
-87 -130 -103 0 -4 -7 -14 -15 -22 -8 -9 -22 -41 -31 -72 -15 -52 -17 -191
-17 -1542 1 -1536 0 -1527 40 -1604 33 -65 99 -128 165 -159 65 -30 130 -36
339 -30 112 3 239 7 281 7 43 1 78 3 78 6 0 3 39 6 88 7 48 1 110 4 137 7 28
3 91 8 140 12 150 10 170 12 170 14 0 0 22 3 49 5 28 2 69 6 93 9 24 4 64 9
91 12 26 3 58 7 72 9 14 2 48 7 75 11 48 6 59 8 115 18 14 3 43 8 65 11 96 14
130 20 285 57 47 11 93 21 103 23 9 2 21 6 25 9 5 3 22 7 38 10 103 18 385
129 506 199 89 51 129 94 177 192 51 104 141 400 156 515 2 14 6 36 9 50 13
59 26 128 31 165 3 22 10 60 15 85 5 25 12 63 14 85 3 22 8 56 10 75 3 19 8
58 11 85 4 28 8 57 11 66 2 8 6 37 9 65 8 88 13 128 19 169 5 35 13 112 21
210 2 17 4 30 5 30 1 0 3 16 5 35 2 39 13 154 20 215 5 45 15 153 20 235 6 84
14 189 20 250 11 109 12 262 3 303 -24 107 -105 214 -198 262 -93 48 -100 48
-745 49 -335 1 -621 0 -635 -1z"/>
</g>
</svg>
