<?xml version="1.0" encoding="utf-8"?>
<!-- Generator: Adobe Illustrator 25.2.0, SVG Export Plug-In . SVG Version: 6.00 Build 0)  -->
<svg version="1.1" id="Layer_1" xmlns="http://www.w3.org/2000/svg" xmlns:xlink="http://www.w3.org/1999/xlink" x="0px" y="0px"
	 viewBox="0 0 407.5 419" style="enable-background:new 0 0 407.5 419;" xml:space="preserve">
<style type="text/css">
	.st0{fill:#FFFFFF;filter:url(#Adobe_OpacityMaskFilter);}
	.st1{mask:url(#mask0_2_3_1_);}
	.st2{fill:#2CAE5C;}
	.st3{fill-rule:evenodd;clip-rule:evenodd;fill:#FCFFFC;}
</style>
<defs>
	<filter id="Adobe_OpacityMaskFilter" filterUnits="userSpaceOnUse" x="20.4" y="4.5" width="366.6" height="389.5">
		<feColorMatrix  type="matrix" values="1 0 0 0 0  0 1 0 0 0  0 0 1 0 0  0 0 0 1 0"/>
	</filter>
</defs>
<mask maskUnits="userSpaceOnUse" x="20.4" y="4.5" width="366.6" height="389.5" id="mask0_2_3_1_">
	<path class="st0" d="M367.2,215.3c10.9,0,19.8,8.8,19.8,19.8c0,0.5,0,0.9,0,1.4c-5.7,82.4-14.2,127.1-25.3,134.1
		c-22.8,14.4-67,22.2-132.6,23.4c-9.9,0.2-18.1-7.7-18.3-17.7c0-0.1,0-0.2,0-0.3V231.7c0-8.9,7.2-16.2,16.2-16.2L367.2,215.3z
		 M198.1,42.6l0,0.2l0,330.1c0,10.9-8.9,19.8-19.8,19.8c-0.2,0-0.4,0-0.7,0c-66.4-2.2-109.9-9.9-130.5-23.1
		c-33.9-21.7-37.3-297.8,0-321.3c22.8-14.4,67-22.2,132.6-23.4C189.7,24.7,197.9,32.7,198.1,42.6z M228.7,24.9l0.3,0
		c65.6,1.2,109.8,9,132.6,23.4c11.2,7.1,19.6,51.8,25.3,134.1c0,0.5,0,0.9,0,1.4c0,10.9-8.9,19.8-19.8,19.8l-140.3-0.2
		c-8.9,0-16.2-7.3-16.2-16.2V42.9c0-0.1,0-0.2,0-0.3c0.2-9.9,8.4-17.9,18.3-17.7L228.7,24.9z"/>
</mask>
<g class="st1">
	<path class="st2" d="M367.2,215.3c10.9,0,19.8,8.8,19.8,19.8c0,0.5,0,0.9,0,1.4c-5.7,82.4-14.2,127.1-25.3,134.1
		c-22.8,14.4-67,22.2-132.6,23.4c-9.9,0.2-18.1-7.7-18.3-17.7c0-0.1,0-0.2,0-0.3V231.7c0-8.9,7.2-16.2,16.2-16.2L367.2,215.3z
		 M198.1,42.6l0,0.2l0,330.1c0,10.9-8.9,19.8-19.8,19.8c-0.2,0-0.4,0-0.7,0c-66.4-2.2-109.9-9.9-130.5-23.1
		c-33.9-21.7-37.3-297.8,0-321.3c22.8-14.4,67-22.2,132.6-23.4C189.7,24.7,197.9,32.7,198.1,42.6z M228.7,24.9l0.3,0
		c65.6,1.2,109.8,9,132.6,23.4c11.2,7.1,19.6,51.8,25.3,134.1c0,0.5,0,0.9,0,1.4c0,10.9-8.9,19.8-19.8,19.8l-140.3-0.2
		c-8.9,0-16.2-7.3-16.2-16.2V42.9c0-0.1,0-0.2,0-0.3c0.2-9.9,8.4-17.9,18.3-17.7L228.7,24.9z"/>
	<path class="st3" d="M348.3,271.2c2,0,3.6,1.6,3.6,3.6V306c0,1.1-0.5,2.1-1.3,2.8l-22.7,18.4c-0.4,0.3-0.8,0.8-1,1.3
		c-0.8,1.8,0,3.9,1.8,4.8c11.5,5.3,19.3,11.7,23.3,19.1c4.3,7.9,6,17.7,5.1,29.5c-0.1,1.6-1.3,2.9-2.9,3.2l-38.7,8
		c2.2-13.4-0.5-23.1-8.1-29.1c-7.1-5.6-20.9-6-41.6-1.1c-0.3,0.1-0.5,0.1-0.8,0.1c-2,0-3.6-1.6-3.6-3.6v-22.8c0-1,0.5-2,1.2-2.7
		l30.3-26.1H246c-2,0-3.6-1.6-3.6-3.6v-29.3c0-2,1.6-3.6,3.6-3.6H348.3z M146.8,134.6c0.1,0.6,0.2,1.2,0.2,1.8v148.8c0,5-4,9-9,9
		h-25.1c-5,0-9-4-9-9V175.8l-23.3,4.9c-4.9,1-9.6-2.1-10.7-7c-0.1-0.6-0.2-1.2-0.2-1.8v-22.9c0-4.3,3-7.9,7.2-8.8l59.3-12.4
		C141,126.6,145.8,129.8,146.8,134.6z M294.7,5.8c21.1-2.1,36.7-1.7,46.8,1.1c0.9,0.3,1.7,0.9,2.2,1.7l0.3,0.6
		c8.6,15.3,10.3,29.8,5.2,43.5c-5.3,14.2-20.1,33.8-44.2,58.7h43.1c2,0,3.6,1.6,3.6,3.6v28.8c0,2-1.6,3.6-3.6,3.6H247.3
		c-2,0-3.6-1.6-3.6-3.6v-23.4c0-3,1.3-6,3.5-8c12.9-11.7,23.7-21.9,32.4-30.6l1.1-1.1c5.6-5.6,10.2-10.5,14-14.8
		c15.4-17.6,21.5-21.7,19.8-30.3c-0.5-2.5-5.6-4.7-16.1-6.2c-6.3-0.9-15.3-7.1-27.1-19.2l-0.5-0.5l0.7-0.2
		c6.8-1.7,14.2-2.9,22.1-3.7L294.7,5.8z M270.3,9.3l0.5,0.5l0,0l-0.2,0.1c-5.5,1.4-10.6,3.1-15.4,5c-0.1,0-0.2,0-0.2-0.1
		c0-0.1,0-0.2,0.1-0.2l10.9-6C267.4,7.9,269.2,8.2,270.3,9.3z"/>
</g>
</svg>
