<svg width="1340" height="419" viewBox="0 0 1340 419" fill="none" xmlns="http://www.w3.org/2000/svg">
<path d="M553.055 291.922C591.768 291.922 616.687 271.651 627.811 231.11C628.298 229.336 627.255 227.504 625.481 227.017C625.194 226.939 624.898 226.899 624.6 226.899H592.621C591.108 226.899 589.785 227.919 589.4 229.383C584.485 248.098 572.37 257.455 553.055 257.455C524.674 257.455 509.261 238.877 509.261 204.409C509.261 169.942 524.674 151.12 553.055 151.12C573.225 151.12 585.297 160.905 589.272 180.475C589.587 182.027 590.952 183.142 592.535 183.142H624.915C626.754 183.142 628.245 181.652 628.245 179.812C628.245 179.598 628.224 179.383 628.183 179.173C619.99 137.329 594.948 116.408 553.055 116.408C498.006 116.408 470.115 155.031 470.115 204.409C470.115 253.055 498.006 291.922 553.055 291.922ZM704.548 291.922C746.14 291.922 768.404 264.055 768.404 225.921C768.404 187.543 745.651 159.675 704.548 159.675C663.445 159.675 640.691 187.543 640.691 225.921C640.691 264.299 662.956 291.922 704.548 291.922ZM704.548 258.922C689.134 258.922 679.103 249.144 679.103 225.921C679.103 202.943 688.889 192.676 704.548 192.676C720.206 192.676 729.992 202.698 729.992 225.921C729.992 249.144 720.206 258.922 704.548 258.922ZM900.617 238.632V165.205C900.617 163.366 899.126 161.875 897.287 161.875H866.269C864.43 161.875 862.939 163.366 862.939 165.205V233.01C862.939 247.677 856.823 256.477 842.143 256.477C827.219 256.477 821.103 247.677 821.103 233.01V165.205C821.103 163.366 819.612 161.875 817.773 161.875H786.755C784.916 161.875 783.425 163.366 783.425 165.205V238.632C783.425 265.495 799.731 291.399 840.651 291.914L841.9 291.922H842.143C883.98 291.922 900.617 265.766 900.617 238.632ZM961.096 286.392V218.832C961.096 203.432 970.883 193.898 984.339 193.898C999.263 193.898 1005.87 202.698 1005.87 217.365V286.392C1005.87 288.231 1007.36 289.722 1009.2 289.722H1040.22C1042.06 289.722 1043.55 288.231 1043.55 286.392V205.632C1043.55 177.276 1024.46 159.675 996.083 159.675C979.446 159.675 968.192 165.787 961.096 174.098H960.118L957.795 164.428C957.435 162.931 956.097 161.875 954.557 161.875H926.749C924.91 161.875 923.419 163.366 923.419 165.205V286.392C923.419 288.231 924.91 289.722 926.749 289.722H957.766C959.606 289.722 961.096 288.231 961.096 286.392ZM1106.86 291.922C1111.66 291.922 1116.46 291.922 1121.25 291.922C1122.75 291.922 1124.07 290.92 1124.47 289.474L1131.64 263.378C1132.12 261.605 1131.08 259.772 1129.31 259.285C1129.02 259.206 1128.72 259.166 1128.42 259.166C1123.71 259.166 1120.27 259.166 1118.11 259.166C1106.86 259.166 1101.72 254.033 1101.72 242.055V193.898H1128.97C1130.81 193.898 1132.3 192.407 1132.3 190.568V165.205C1132.3 163.366 1130.81 161.875 1128.97 161.875H1101.72V132.713C1101.72 130.873 1100.23 129.383 1098.39 129.383C1098.1 129.383 1097.82 129.42 1097.54 129.493L1066.52 137.707C1065.06 138.094 1064.04 139.416 1064.04 140.926V193.898V251.099C1064.04 274.322 1077.26 291.922 1106.86 291.922ZM1192.05 286.392V112.16C1192.05 110.321 1190.56 108.83 1188.72 108.83H1157.7C1155.86 108.83 1154.37 110.321 1154.37 112.16V286.392C1154.37 288.231 1155.86 289.722 1157.7 289.722H1188.72C1190.56 289.722 1192.05 288.231 1192.05 286.392ZM1267.91 360.147L1339.57 164.875C1339.71 164.508 1339.78 164.12 1339.78 163.728V163.098C1339.78 162.423 1339.23 161.875 1338.55 161.875H1303.25C1301.81 161.875 1300.53 162.809 1300.08 164.185L1272.86 248.771L1245.35 164.176C1244.9 162.804 1243.63 161.875 1242.18 161.875H1207.17C1206.49 161.875 1205.95 162.423 1205.95 163.098V163.717C1205.95 164.116 1206.02 164.511 1206.16 164.885L1252.5 288.601C1252.77 289.326 1252.78 290.122 1252.53 290.854L1229.43 357.916C1228.84 359.654 1229.76 361.55 1231.5 362.149C1231.85 362.269 1232.21 362.33 1232.58 362.33H1264.78C1266.18 362.33 1267.43 361.458 1267.91 360.147Z" fill="#24292E"/>
<mask id="mask0_2_3" style="mask-type:alpha" maskUnits="userSpaceOnUse" x="22" y="24" width="367" height="370">
<path d="M368.857 215.269C379.793 215.255 388.669 224.108 388.683 235.043C388.684 235.51 388.668 235.977 388.636 236.442C382.911 318.814 374.467 363.527 363.304 370.581C340.53 384.973 296.327 392.766 230.698 393.96C220.758 394.14 212.554 386.229 212.373 376.29C212.371 376.181 212.37 376.072 212.37 375.962V231.654C212.37 222.715 219.61 215.466 228.549 215.454L368.857 215.269ZM199.677 42.5966L199.679 42.7602L199.68 372.863C199.68 383.799 190.815 392.663 179.88 392.663C179.663 392.663 179.446 392.66 179.23 392.653C112.8 390.471 69.3058 382.787 48.746 369.6C14.8465 347.857 11.4955 71.845 48.746 48.305C71.5206 33.9129 115.723 26.1202 181.353 24.9268C191.292 24.7461 199.496 32.6571 199.677 42.5966ZM230.367 24.9238L230.698 24.9268C296.327 26.1202 340.53 33.9129 363.304 48.305C374.467 55.359 382.911 100.072 388.636 182.444C388.668 182.91 388.684 183.376 388.683 183.843C388.669 194.778 379.793 203.631 368.857 203.617L228.549 203.432C219.61 203.42 212.37 196.171 212.37 187.232V42.9238C212.37 42.8147 212.371 42.7057 212.373 42.5966C212.554 32.6571 220.758 24.7461 230.698 24.9268L230.367 24.9238Z" fill="white"/>
</mask>
<g mask="url(#mask0_2_3)">
<path d="M368.857 215.269C379.793 215.255 388.669 224.108 388.683 235.043C388.684 235.51 388.668 235.977 388.636 236.442C382.911 318.814 374.467 363.527 363.304 370.581C340.53 384.973 296.327 392.766 230.698 393.96C220.758 394.14 212.554 386.229 212.373 376.29C212.371 376.181 212.37 376.072 212.37 375.962V231.654C212.37 222.715 219.61 215.466 228.549 215.454L368.857 215.269ZM199.677 42.5966L199.679 42.7602L199.68 372.863C199.68 383.799 190.815 392.663 179.88 392.663C179.663 392.663 179.446 392.66 179.23 392.653C112.8 390.471 69.3058 382.787 48.746 369.6C14.8465 347.857 11.4955 71.845 48.746 48.305C71.5206 33.9129 115.723 26.1202 181.353 24.9268C191.292 24.7461 199.496 32.6571 199.677 42.5966ZM230.367 24.9238L230.698 24.9268C296.327 26.1202 340.53 33.9129 363.304 48.305C374.467 55.359 382.911 100.072 388.636 182.444C388.668 182.91 388.684 183.376 388.683 183.843C388.669 194.778 379.793 203.631 368.857 203.617L228.549 203.432C219.61 203.42 212.37 196.171 212.37 187.232V42.9238C212.37 42.8147 212.371 42.7057 212.373 42.5966C212.554 32.6571 220.758 24.7461 230.698 24.9268L230.367 24.9238Z" fill="#2CAE5C"/>
<path fill-rule="evenodd" clip-rule="evenodd" d="M349.897 271.235C351.885 271.235 353.497 272.846 353.497 274.835V306.008C353.497 307.096 353.005 308.125 352.159 308.809L329.429 327.169C328.998 327.517 328.653 327.96 328.422 328.463C327.589 330.269 328.379 332.407 330.184 333.239C341.675 338.535 349.446 344.892 353.497 352.309C357.825 360.236 359.525 370.057 358.597 381.773C358.471 383.369 357.305 384.69 355.737 385.014L317.085 393C319.245 379.614 316.543 369.914 308.979 363.899C301.909 358.278 288.05 357.91 267.401 362.797C267.13 362.862 266.851 362.894 266.572 362.894C264.584 362.894 262.972 361.282 262.972 359.294V336.52C262.972 335.472 263.429 334.477 264.222 333.793L294.48 307.728H247.573C245.585 307.728 243.973 306.116 243.973 304.128V274.835C243.973 272.846 245.585 271.235 247.573 271.235H349.897ZM148.44 134.629C148.567 135.236 148.631 135.853 148.631 136.473V285.307C148.631 290.278 144.602 294.307 139.631 294.307H114.507C109.537 294.307 105.507 290.278 105.507 285.307L105.507 175.75L82.2114 180.627C77.3463 181.645 72.5768 178.527 71.5585 173.662C71.4315 173.055 71.3676 172.437 71.3676 171.818V148.878C71.3676 144.618 74.3541 140.942 78.5237 140.069L137.787 127.664C142.653 126.646 147.422 129.764 148.44 134.629ZM296.337 5.82199C317.454 3.74551 333.044 4.11521 343.108 6.93111C344.019 7.18595 344.793 7.789 345.263 8.60989L345.597 9.19994C354.207 24.5308 355.945 39.0284 350.812 52.6929C345.474 66.9036 330.735 86.4559 306.596 111.35H349.709C351.697 111.35 353.309 112.961 353.309 114.95V143.769C353.309 145.757 351.697 147.369 349.709 147.369H248.94C246.952 147.369 245.34 145.757 245.34 143.769V120.374C245.34 117.327 246.627 114.421 248.885 112.374C261.806 100.658 272.612 90.4624 281.302 81.7888L282.356 80.7343C287.918 75.151 292.579 70.2165 296.337 65.9308C311.738 48.3699 317.87 44.2508 316.096 35.6533C315.589 33.1955 310.5 31 300 29.5C293.667 28.6024 284.731 22.3897 272.899 10.3497L272.41 9.85L273.103 9.67723C279.896 8.00777 287.277 6.75942 295.247 5.93218L296.337 5.82199ZM271.906 9.3335L272.404 9.84483L272.41 9.85L272.181 9.90749C266.667 11.3047 261.547 12.9839 256.821 14.9449C256.742 14.9778 256.651 14.9402 256.618 14.8609C256.588 14.7877 256.618 14.7033 256.687 14.6651L267.592 8.6842C269.012 7.90511 270.778 8.17086 271.906 9.3335Z" fill="#FCFFFC"/>
</g>
</svg>
