<?xml version="1.0" encoding="utf-8"?>
<!-- Generator: Adobe Illustrator 25.2.0, SVG Export Plug-In . SVG Version: 6.00 Build 0)  -->
<svg version="1.1" id="Layer_1" xmlns="http://www.w3.org/2000/svg" xmlns:xlink="http://www.w3.org/1999/xlink" x="0px" y="0px"
	 viewBox="0 0 1340 419" style="enable-background:new 0 0 1340 419;" xml:space="preserve">
<style type="text/css">
	.st0{fill:#FFFFFF;}
	.st1{fill:#FFFFFF;filter:url(#Adobe_OpacityMaskFilter);}
	.st2{mask:url(#mask0_2_3_1_);}
	.st3{fill:#2CAE5C;}
	.st4{fill-rule:evenodd;clip-rule:evenodd;fill:#FCFFFC;}
</style>
<path class="st0" d="M553.1,291.9c38.7,0,63.6-20.3,74.8-60.8c0.5-1.8-0.6-3.6-2.3-4.1c-0.3-0.1-0.6-0.1-0.9-0.1h-32
	c-1.5,0-2.8,1-3.2,2.5c-4.9,18.7-17,28.1-36.3,28.1c-28.4,0-43.8-18.6-43.8-53c0-34.5,15.4-53.3,43.8-53.3
	c20.2,0,32.2,9.8,36.2,29.4c0.3,1.6,1.7,2.7,3.3,2.7h32.4c1.8,0,3.3-1.5,3.3-3.3c0-0.2,0-0.4-0.1-0.6c-8.2-41.8-33.2-62.8-75.1-62.8
	c-55,0-82.9,38.6-82.9,88C470.1,253.1,498,291.9,553.1,291.9z M704.5,291.9c41.6,0,63.9-27.9,63.9-66c0-38.4-22.8-66.2-63.9-66.2
	c-41.1,0-63.9,27.9-63.9,66.2S663,291.9,704.5,291.9z M704.5,258.9c-15.4,0-25.4-9.8-25.4-33c0-23,9.8-33.2,25.4-33.2
	c15.7,0,25.4,10,25.4,33.2S720.2,258.9,704.5,258.9z M900.6,238.6v-73.4c0-1.8-1.5-3.3-3.3-3.3h-31c-1.8,0-3.3,1.5-3.3,3.3V233
	c0,14.7-6.1,23.5-20.8,23.5c-14.9,0-21-8.8-21-23.5v-67.8c0-1.8-1.5-3.3-3.3-3.3h-31c-1.8,0-3.3,1.5-3.3,3.3v73.4
	c0,26.9,16.3,52.8,57.2,53.3l1.2,0h0.2C884,291.9,900.6,265.8,900.6,238.6z M961.1,286.4v-67.6c0-15.4,9.8-24.9,23.2-24.9
	c14.9,0,21.5,8.8,21.5,23.5v69c0,1.8,1.5,3.3,3.3,3.3h31c1.8,0,3.3-1.5,3.3-3.3v-80.8c0-28.4-19.1-46-47.5-46
	c-16.6,0-27.9,6.1-35,14.4h-1l-2.3-9.7c-0.4-1.5-1.7-2.6-3.2-2.6h-27.8c-1.8,0-3.3,1.5-3.3,3.3v121.2c0,1.8,1.5,3.3,3.3,3.3h31
	C959.6,289.7,961.1,288.2,961.1,286.4z M1106.9,291.9c4.8,0,9.6,0,14.4,0c1.5,0,2.8-1,3.2-2.4l7.2-26.1c0.5-1.8-0.6-3.6-2.3-4.1
	c-0.3-0.1-0.6-0.1-0.9-0.1c-4.7,0-8.2,0-10.3,0c-11.2,0-16.4-5.1-16.4-17.1v-48.2h27.2c1.8,0,3.3-1.5,3.3-3.3v-25.4
	c0-1.8-1.5-3.3-3.3-3.3h-27.2v-29.2c0-1.8-1.5-3.3-3.3-3.3c-0.3,0-0.6,0-0.8,0.1l-31,8.2c-1.5,0.4-2.5,1.7-2.5,3.2v53v57.2
	C1064,274.3,1077.3,291.9,1106.9,291.9z M1192.1,286.4V112.2c0-1.8-1.5-3.3-3.3-3.3h-31c-1.8,0-3.3,1.5-3.3,3.3v174.2
	c0,1.8,1.5,3.3,3.3,3.3h31C1190.6,289.7,1192.1,288.2,1192.1,286.4z M1267.9,360.1l71.7-195.3c0.1-0.4,0.2-0.8,0.2-1.1v-0.6
	c0-0.7-0.6-1.2-1.2-1.2h-35.3c-1.4,0-2.7,0.9-3.2,2.3l-27.2,84.6l-27.5-84.6c-0.4-1.4-1.7-2.3-3.2-2.3h-35c-0.7,0-1.2,0.5-1.2,1.2
	v0.6c0,0.4,0.1,0.8,0.2,1.2l46.3,123.7c0.3,0.7,0.3,1.5,0,2.3l-23.1,67.1c-0.6,1.7,0.3,3.6,2.1,4.2c0.3,0.1,0.7,0.2,1.1,0.2h32.2
	C1266.2,362.3,1267.4,361.5,1267.9,360.1z"/>
<defs>
	<filter id="Adobe_OpacityMaskFilter" filterUnits="userSpaceOnUse" x="22" y="4.5" width="366.6" height="389.5">
		<feColorMatrix  type="matrix" values="1 0 0 0 0  0 1 0 0 0  0 0 1 0 0  0 0 0 1 0"/>
	</filter>
</defs>
<mask maskUnits="userSpaceOnUse" x="22" y="4.5" width="366.6" height="389.5" id="mask0_2_3_1_">
	<path class="st1" d="M368.9,215.3c10.9,0,19.8,8.8,19.8,19.8c0,0.5,0,0.9,0,1.4c-5.7,82.4-14.2,127.1-25.3,134.1
		c-22.8,14.4-67,22.2-132.6,23.4c-9.9,0.2-18.1-7.7-18.3-17.7c0-0.1,0-0.2,0-0.3V231.7c0-8.9,7.2-16.2,16.2-16.2L368.9,215.3z
		 M199.7,42.6l0,0.2l0,330.1c0,10.9-8.9,19.8-19.8,19.8c-0.2,0-0.4,0-0.7,0c-66.4-2.2-109.9-9.9-130.5-23.1
		c-33.9-21.7-37.3-297.8,0-321.3c22.8-14.4,67-22.2,132.6-23.4C191.3,24.7,199.5,32.7,199.7,42.6z M230.4,24.9l0.3,0
		c65.6,1.2,109.8,9,132.6,23.4c11.2,7.1,19.6,51.8,25.3,134.1c0,0.5,0,0.9,0,1.4c0,10.9-8.9,19.8-19.8,19.8l-140.3-0.2
		c-8.9,0-16.2-7.3-16.2-16.2V42.9c0-0.1,0-0.2,0-0.3c0.2-9.9,8.4-17.9,18.3-17.7L230.4,24.9z"/>
</mask>
<g class="st2">
	<path class="st3" d="M368.9,215.3c10.9,0,19.8,8.8,19.8,19.8c0,0.5,0,0.9,0,1.4c-5.7,82.4-14.2,127.1-25.3,134.1
		c-22.8,14.4-67,22.2-132.6,23.4c-9.9,0.2-18.1-7.7-18.3-17.7c0-0.1,0-0.2,0-0.3V231.7c0-8.9,7.2-16.2,16.2-16.2L368.9,215.3z
		 M199.7,42.6l0,0.2l0,330.1c0,10.9-8.9,19.8-19.8,19.8c-0.2,0-0.4,0-0.7,0c-66.4-2.2-109.9-9.9-130.5-23.1
		c-33.9-21.7-37.3-297.8,0-321.3c22.8-14.4,67-22.2,132.6-23.4C191.3,24.7,199.5,32.7,199.7,42.6z M230.4,24.9l0.3,0
		c65.6,1.2,109.8,9,132.6,23.4c11.2,7.1,19.6,51.8,25.3,134.1c0,0.5,0,0.9,0,1.4c0,10.9-8.9,19.8-19.8,19.8l-140.3-0.2
		c-8.9,0-16.2-7.3-16.2-16.2V42.9c0-0.1,0-0.2,0-0.3c0.2-9.9,8.4-17.9,18.3-17.7L230.4,24.9z"/>
	<path class="st4" d="M349.9,271.2c2,0,3.6,1.6,3.6,3.6V306c0,1.1-0.5,2.1-1.3,2.8l-22.7,18.4c-0.4,0.3-0.8,0.8-1,1.3
		c-0.8,1.8,0,3.9,1.8,4.8c11.5,5.3,19.3,11.7,23.3,19.1c4.3,7.9,6,17.7,5.1,29.5c-0.1,1.6-1.3,2.9-2.9,3.2l-38.7,8
		c2.2-13.4-0.5-23.1-8.1-29.1c-7.1-5.6-20.9-6-41.6-1.1c-0.3,0.1-0.5,0.1-0.8,0.1c-2,0-3.6-1.6-3.6-3.6v-22.8c0-1,0.5-2,1.2-2.7
		l30.3-26.1h-46.9c-2,0-3.6-1.6-3.6-3.6v-29.3c0-2,1.6-3.6,3.6-3.6H349.9z M148.4,134.6c0.1,0.6,0.2,1.2,0.2,1.8v148.8c0,5-4,9-9,9
		h-25.1c-5,0-9-4-9-9V175.8l-23.3,4.9c-4.9,1-9.6-2.1-10.7-7c-0.1-0.6-0.2-1.2-0.2-1.8v-22.9c0-4.3,3-7.9,7.2-8.8l59.3-12.4
		C142.7,126.6,147.4,129.8,148.4,134.6z M296.3,5.8c21.1-2.1,36.7-1.7,46.8,1.1c0.9,0.3,1.7,0.9,2.2,1.7l0.3,0.6
		c8.6,15.3,10.3,29.8,5.2,43.5c-5.3,14.2-20.1,33.8-44.2,58.7h43.1c2,0,3.6,1.6,3.6,3.6v28.8c0,2-1.6,3.6-3.6,3.6H248.9
		c-2,0-3.6-1.6-3.6-3.6v-23.4c0-3,1.3-6,3.5-8c12.9-11.7,23.7-21.9,32.4-30.6l1.1-1.1c5.6-5.6,10.2-10.5,14-14.8
		c15.4-17.6,21.5-21.7,19.8-30.3c-0.5-2.5-5.6-4.7-16.1-6.2c-6.3-0.9-15.3-7.1-27.1-19.2l-0.5-0.5l0.7-0.2
		c6.8-1.7,14.2-2.9,22.1-3.7L296.3,5.8z M271.9,9.3l0.5,0.5l0,0l-0.2,0.1c-5.5,1.4-10.6,3.1-15.4,5c-0.1,0-0.2,0-0.2-0.1
		c0-0.1,0-0.2,0.1-0.2l10.9-6C269,7.9,270.8,8.2,271.9,9.3z"/>
</g>
</svg>
